<svg  viewBox="0 0 291 286" xmlns="http://www.w3.org/2000/svg">
<g id="Headhunter" fill="#121212">
<g id="UI / Users / User 1 / 2" fill="#323232">
<g id="Users">
<g id="Browser">
<g id="Background">
<path id="Vector" d="M285.507 51.4601H193.512C190.575 51.4601 188.195 53.8405 188.195 56.7768V118.357C188.195 121.293 190.575 123.674 193.512 123.674H285.507C288.444 123.674 290.825 121.293 290.825 118.357V56.7768C290.825 53.8405 288.444 51.4601 285.507 51.4601Z" fill="#F2F6FB"/>
</g>
</g>
<g id="Userpic">
<g id="Group">
<g id="Group 2">
<path id="Oval" d="M214.105 79.9815C218.912 79.9815 222.81 76.0873 222.81 71.2835C222.81 66.4797 218.912 62.5855 214.105 62.5855C209.298 62.5855 205.401 66.4797 205.401 71.2835C205.401 76.0873 209.298 79.9815 214.105 79.9815Z" fill="#D8DEED"/>
<path id="Oval_2" d="M239.611 79.9815C244.418 79.9815 248.315 76.0873 248.315 71.2835C248.315 66.4797 244.418 62.5855 239.611 62.5855C234.804 62.5855 230.907 66.4797 230.907 71.2835C230.907 76.0873 234.804 79.9815 239.611 79.9815Z" fill="#D8DEED"/>
<path id="Oval Copy" d="M265.117 79.9815C269.924 79.9815 273.821 76.0873 273.821 71.2835C273.821 66.4797 269.924 62.5855 265.117 62.5855C260.31 62.5855 256.413 66.4797 256.413 71.2835C256.413 76.0873 260.31 79.9815 265.117 79.9815Z" fill="#D8DEED"/>
<path id="Oval_3" d="M214.105 109.514C218.912 109.514 222.81 105.575 222.81 100.715C222.81 95.8555 218.912 91.916 214.105 91.916C209.298 91.916 205.401 95.8555 205.401 100.715C205.401 105.575 209.298 109.514 214.105 109.514Z" fill="#D8DEED"/>
<path id="Oval_4" d="M239.611 109.514C244.418 109.514 248.315 105.575 248.315 100.715C248.315 95.8555 244.418 91.916 239.611 91.916C234.804 91.916 230.907 95.8555 230.907 100.715C230.907 105.575 234.804 109.514 239.611 109.514Z" fill="#D8DEED"/>
<path id="Oval_5" d="M265.016 109.514C269.879 109.514 273.821 105.575 273.821 100.715C273.821 95.8555 269.879 91.916 265.016 91.916C260.152 91.916 256.21 95.8555 256.21 100.715C256.21 105.575 260.152 109.514 265.016 109.514Z" fill="#D8DEED"/>
</g>
<g id="Icons / User">
<path id="Combined Shape" d="M214.105 71.2835C212.875 71.2835 211.879 70.3326 211.879 69.1596C211.879 67.9866 212.875 67.0356 214.105 67.0356C215.335 67.0356 216.332 67.9866 216.332 69.1596C216.332 70.3326 215.335 71.2835 214.105 71.2835ZM214.105 72.2949C216.341 72.2949 218.154 74.0156 218.154 76.1382H210.057C210.057 74.0156 211.869 72.2949 214.105 72.2949Z" fill="#F2F6FB"/>
</g>
</g>
</g>
<g id="Userpic_2">
<g id="Icons / User_2">
<g id="Group_2">
<path id="Combined Shape_2" d="M239.611 71.2835C238.381 71.2835 237.384 70.3326 237.384 69.1596C237.384 67.9866 238.381 67.0356 239.611 67.0356C240.841 67.0356 241.838 67.9866 241.838 69.1596C241.838 70.3326 240.841 71.2835 239.611 71.2835ZM239.51 72.2949C241.69 72.2949 243.457 74.0156 243.457 76.1382H235.562C235.562 74.0156 237.33 72.2949 239.51 72.2949Z" fill="#F2F6FB"/>
<path id="Combined Shape Copy" d="M265.117 71.2835C263.887 71.2835 262.89 70.3326 262.89 69.1596C262.89 67.9866 263.887 67.0356 265.117 67.0356C266.347 67.0356 267.343 67.9866 267.343 69.1596C267.343 70.3326 266.347 71.2835 265.117 71.2835ZM265.016 72.2949C267.196 72.2949 268.963 74.0156 268.963 76.1382H261.068C261.068 74.0156 262.836 72.2949 265.016 72.2949Z" fill="#F2F6FB"/>
</g>
</g>
</g>
<g id="Userpic_3">
<g id="Icons / User_3">
<g id="Group_3">
<path id="Combined Shape_3" d="M214.105 100.614C212.875 100.614 211.879 99.6178 211.879 98.3889C211.879 97.1601 212.875 96.1639 214.105 96.1639C215.335 96.1639 216.332 97.1601 216.332 98.3889C216.332 99.6178 215.335 100.614 214.105 100.614ZM214.105 101.423C216.341 101.423 218.154 103.234 218.154 105.469H210.057C210.057 103.234 211.869 101.423 214.105 101.423Z" fill="#F2F6FB"/>
</g>
</g>
</g>
<g id="Userpic_4">
<g id="Icons / User_4">
<g id="Group_4">
<path id="Combined Shape_4" d="M239.611 100.614C238.381 100.614 237.384 99.6178 237.384 98.3889C237.384 97.1601 238.381 96.1639 239.611 96.1639C240.841 96.1639 241.838 97.1601 241.838 98.3889C241.838 99.6178 240.841 100.614 239.611 100.614ZM239.51 101.423C241.69 101.423 243.457 103.234 243.457 105.469H235.562C235.562 103.234 237.33 101.423 239.51 101.423Z" fill="#F2F6FB"/>
</g>
</g>
</g>
<g id="Userpic_5">
<g id="Icons / User_5">
<g id="Group_5">
<path id="Combined Shape_5" d="M265.117 100.614C263.887 100.614 262.89 99.6178 262.89 98.3889C262.89 97.1601 263.887 96.1639 265.117 96.1639C266.347 96.1639 267.344 97.1601 267.344 98.3889C267.344 99.6178 266.347 100.614 265.117 100.614ZM265.016 101.423C267.196 101.423 268.963 103.234 268.963 105.469H261.068C261.068 103.234 262.836 101.423 265.016 101.423Z" fill="#F2F6FB"/>
</g>
</g>
</g>
<g id="Text">
<path id="Vector_2" d="M220.989 82.2066H207.222C206.216 82.2066 205.401 83.0216 205.401 84.0271C205.401 85.0325 206.216 85.8476 207.222 85.8476H220.989C221.994 85.8476 222.81 85.0325 222.81 84.0271C222.81 83.0216 221.994 82.2066 220.989 82.2066Z" fill="#E1E5F0"/>
</g>
<g id="Text_2">
<path id="Vector_3" d="M246.495 82.2066H232.728C231.722 82.2066 230.907 83.0216 230.907 84.0271C230.907 85.0325 231.722 85.8476 232.728 85.8476H246.495C247.5 85.8476 248.315 85.0325 248.315 84.0271C248.315 83.0216 247.5 82.2066 246.495 82.2066Z" fill="#E1E5F0"/>
</g>
<g id="Text_3">
<path id="Vector_4" d="M272 82.2066H258.031C257.025 82.2066 256.21 83.0216 256.21 84.0271C256.21 85.0325 257.025 85.8476 258.031 85.8476H272C273.006 85.8476 273.821 85.0325 273.821 84.0271C273.821 83.0216 273.006 82.2066 272 82.2066Z" fill="#E1E5F0"/>
</g>
<g id="Text_4">
<path id="Vector_5" d="M220.989 111.537H207.222C206.216 111.537 205.401 112.352 205.401 113.358C205.401 114.363 206.216 115.178 207.222 115.178H220.989C221.994 115.178 222.81 114.363 222.81 113.358C222.81 112.352 221.994 111.537 220.989 111.537Z" fill="#E1E5F0"/>
</g>
<g id="Text_5">
<path id="Vector_6" d="M246.495 111.537H232.728C231.722 111.537 230.907 112.352 230.907 113.358C230.907 114.363 231.722 115.178 232.728 115.178H246.495C247.5 115.178 248.315 114.363 248.315 113.358C248.315 112.352 247.5 111.537 246.495 111.537Z" fill="#E1E5F0"/>
</g>
<g id="Text_6">
<path id="Vector_7" d="M272 111.537H258.031C257.025 111.537 256.21 112.352 256.21 113.358C256.21 114.363 257.025 115.178 258.031 115.178H272C273.006 115.178 273.821 114.363 273.821 113.358C273.821 112.352 273.006 111.537 272 111.537Z" fill="#E1E5F0"/>
</g>
</g>
<path id="Top bar Copy" d="M188.195 49.4373C188.195 46.9796 190.187 44.9872 192.646 44.9872H286.374C288.832 44.9872 290.825 46.979 290.825 49.4373V53.8875H188.195V49.4373Z" fill="#E1E5F0"/>
</g>
<g id="Human" fill="#000">
<g id="Interior / Chair /  Chair 2">
<g id="Chair">
<path id="Combined Shape_6" d="M204.123 227.234H225.154C225.792 227.234 226.351 226.703 226.351 226.065V225.932C226.351 225.294 225.792 224.762 225.101 224.762H205.612C193.807 224.762 182.002 224.762 170.223 224.762H152.143C151.505 224.762 150.946 225.294 150.946 225.932V226.065C150.946 226.703 151.478 227.234 152.143 227.234H177.801L170.728 240.207C165.703 249.458 160.678 258.682 155.626 267.933L147.304 283.192C147.011 283.724 147.251 284.415 147.809 284.734L147.915 284.787C148.474 285.08 149.192 284.92 149.458 284.415L180.592 227.234H201.331L232.466 284.415C232.732 284.92 233.45 285.106 234.008 284.787L234.115 284.734C234.673 284.415 234.912 283.724 234.62 283.192L226.298 267.933C221.272 258.682 216.247 249.458 211.195 240.207L204.123 227.234ZM226.271 216.817V201.36C226.271 189.572 226.271 177.811 226.271 166.05V152.004C226.271 149.801 224.485 148.016 222.283 148.016H178.891C176.688 148.016 174.902 149.801 174.902 152.004V216.863C174.902 219.065 176.688 220.85 178.891 220.85C178.892 220.85 178.894 220.85 178.895 220.85L222.287 220.804C224.488 220.802 226.271 219.018 226.271 216.817Z" fill="#D8DEED"/>
</g>
</g>
<g id="Characters sitting / Man sitting / 5">
<g id="Man">
<g id="Legs">
<path id="Base" d="M171.475 284.763C171.274 284.914 171.025 285.002 170.755 285.002H155.998C155.334 285.002 154.775 284.444 154.775 283.779C154.775 283.115 155.334 282.556 155.998 282.556H170.376L196.785 262.885C197.316 262.486 198.087 262.592 198.486 263.124C198.885 263.656 198.779 264.426 198.247 264.825L171.552 284.71C171.527 284.729 171.501 284.746 171.475 284.763ZM82.854 284.973C82.2159 284.973 81.6576 284.442 81.6576 283.777C81.6576 283.113 82.1893 282.581 82.854 282.581H125.103C125.767 282.581 126.299 283.113 126.299 283.777C126.299 284.442 125.767 284.973 125.103 284.973H82.854Z" fill="#FE6C00"/>
<path id="Shoes" d="M196.916 262.799C196.871 262.824 196.827 262.853 196.785 262.885L170.375 282.556H155.998C155.954 282.556 155.911 282.559 155.868 282.564C155.853 282.478 155.842 282.394 155.839 282.315C155.865 282.129 155.865 281.916 155.918 281.704C156.051 281.225 156.264 280.773 156.503 280.374C157.274 279.152 158.657 278.301 158.657 278.301C160.252 277.264 161.715 276.573 163.443 275.829C164.347 275.43 165.623 274.898 167.112 274.313C167.591 272.772 168.069 271.23 168.548 269.661C169.452 266.657 170.356 263.68 171.233 260.703L187.239 249.086L196.916 262.799ZM125.618 282.696C125.462 282.622 125.288 282.581 125.103 282.581H82.854C82.7311 282.581 82.6127 282.599 82.5014 282.633C82.4577 282.539 82.424 282.438 82.402 282.333V282.306C82.402 282.173 82.3754 282.04 82.402 281.907C82.4286 281.748 82.4286 281.615 82.4818 281.455C82.8274 280.259 83.758 279.249 84.3695 278.691C84.4493 278.611 84.5025 278.584 84.5822 278.531C85.7521 277.813 86.9486 277.149 88.1982 276.591C90.6444 275.474 96.0684 273.188 97.6902 272.364C99.7907 271.301 102.689 269.493 105.72 266.25C105.879 266.17 109.791 261.58 109.791 261.58C120.406 265.284 125.714 267.145 125.714 267.163V282.2C125.714 282.376 125.68 282.543 125.618 282.696Z" fill="#000B93"/>
<path id="Vector_8" d="M144.741 240.299C141.041 247.276 136.721 255.865 131.78 266.066C130.89 267.902 128.758 268.771 126.838 268.079L107.037 260.939C106.921 260.897 106.806 260.85 106.694 260.797C104.701 259.861 103.844 257.486 104.78 255.493L123.897 214.805C123.511 214.28 123.131 213.758 122.758 213.241C122.735 213.193 122.7 213.181 122.676 213.133C118.514 207.326 119.658 199.434 125.253 195.7C127.106 194.472 128.959 193.243 130.812 192.014C133.197 190.44 135.995 189.878 138.716 190.247C140.076 189.397 141.646 188.697 143.432 188.315C145.238 187.935 146.929 187.954 148.483 188.199L210.597 187.882C212.617 210.062 209.025 221.812 199.819 223.133C193.289 224.069 183.69 224.324 171.021 223.897C176.789 231.038 182.55 238.338 188.161 245.67C188.56 246.185 189.427 247.418 189.424 248.987C189.409 251.863 186.378 253.223 179.684 257.611C171.818 262.807 168.857 265.641 165.816 264.255C164.811 263.829 164.211 263.145 163.965 262.822C160.658 258.356 153.073 249.909 144.741 240.299Z" fill="#88C0FF"/>
<path id="Shadow legs" opacity="0.176986" d="M144.794 240.494C147.192 235.969 149.33 232.118 151.209 228.941C152.437 226.863 153.601 224.905 154.661 223.132C160.562 223.51 165.994 223.783 170.957 223.953C176.743 231.115 182.521 238.437 188.149 245.791C188.548 246.307 189.416 247.54 189.413 249.108C189.398 251.985 186.367 253.344 179.673 257.732C171.806 262.929 168.845 265.763 165.805 264.376C164.799 263.95 164.2 263.266 163.954 262.943C160.655 258.488 153.101 250.073 144.794 240.494V240.494ZM123.951 215.015C123.542 214.46 123.14 213.909 122.747 213.363C122.724 213.315 122.688 213.303 122.665 213.255C118.502 207.448 119.646 199.556 125.241 195.822C127.095 194.593 128.948 193.364 130.801 192.135C133.196 190.555 136.006 189.994 138.737 190.373C134.759 192.901 132.608 196.702 132.178 197.506L123.951 215.015Z" fill="#000B93"/>
</g>
<g id="Body">
<path id="Shirt" d="M162.894 171.772C160.499 171.517 157.08 171.172 152.638 170.737C151.576 170.605 150.568 169.495 150.637 168.34C150.42 165.534 152.289 159.984 152.696 158.809C153.627 156.177 155.302 151.1 155.914 148.76C157.615 142.141 159.716 139.669 160.434 138.951C161.258 138.1 162.055 137.516 162.587 137.143C166.177 134.671 169.979 134.299 171.92 134.246C171.973 134.219 172.026 134.219 172.079 134.219L176.426 134.158C178.688 133.631 180.911 133.462 182.723 133.326C185.377 133.141 188.116 132.946 190.818 133.291L198.215 133.395C198.269 133.395 198.322 133.395 198.375 133.422C200.316 133.475 204.118 133.847 207.707 136.319C208.239 136.691 209.037 137.276 209.861 138.127C210.579 138.845 212.679 141.317 214.381 147.936C214.993 150.276 216.668 155.353 217.598 157.985C217.887 158.818 218.504 161.509 219.45 166.057C219.529 166.179 219.584 166.312 219.612 166.453C219.631 166.574 219.628 166.693 219.606 166.809C219.656 167.054 219.708 167.305 219.76 167.56C219.543 167.564 219.326 167.568 219.11 167.573C218.808 167.815 218.394 167.985 217.923 168.032L210.71 168.796C211.874 175.993 212.011 182.029 211.359 185.803C211.359 185.887 211.329 185.998 211.3 186.082C211.152 186.945 165.247 187.976 164.922 187.669C161.97 185.023 162.62 178.7 162.62 178.7C162.712 176.223 162.804 173.917 162.894 171.772Z" fill="#3C4AFF"/>
<path id="Tie" d="M180.534 140.078L184.913 137.463L187.894 140.602L187.891 140.629C187.816 141.257 187.385 141.755 186.825 141.948L186.423 169.284C186.421 169.359 186.388 169.43 186.332 169.48L182.164 173.118C182.054 173.213 181.888 173.203 181.791 173.095L178.015 168.9C177.963 168.842 177.939 168.764 177.949 168.687L181.538 141.399C180.985 141.183 180.595 140.671 180.534 140.078Z" fill="#000B93"/>
<path id="Shadow Shirt" opacity="0.2" d="M185.385 132.941C183.866 133.211 178.265 133.274 178.105 135.099C177.999 136.316 178.056 138.425 178.277 141.426L184.914 137.463L189.791 142.599C192.646 138.04 193.102 135.194 191.16 134.061C188.246 132.36 186.903 132.671 185.385 132.941Z" fill="#8C2A00"/>
<path id="Skin" d="M190.568 127.22L189.263 135.412C189.227 135.594 189.113 135.762 188.942 135.81C188.182 136.095 187.125 136.377 185.873 136.405C183.611 136.48 181.829 135.754 180.846 135.238C180.647 135.145 180.531 134.906 180.572 134.697L181.36 130.104C179.885 130.348 179.972 130.312 179.829 130.33C178.104 130.428 176.704 130.102 176.453 129.999C175.529 129.738 174.69 128.763 174.061 127.259C173.205 125.252 172.673 122.278 172.743 118.852C172.73 118.362 172.795 117.887 172.86 117.412L173.664 112.721C173.841 111.672 174.3 110.705 174.983 109.836C175.273 109.459 175.548 109.161 175.865 108.924C177.833 107.21 180.255 106.953 182.135 107.106C183.139 107.171 184.03 107.35 184.659 107.544C184.889 107.616 185.704 107.883 186.889 108.194C187.531 108.373 188.053 108.475 188.361 108.562C192.22 109.474 193.851 109.304 195.606 110.728C195.935 110.982 196.679 111.614 197.233 112.669C198.792 115.653 197.647 118.897 197.324 119.863C196.275 122.747 194.198 124.238 193.529 124.894C192.728 125.691 191.46 126.609 190.568 127.22ZM152.085 181.559L153.557 170.818L160.199 171.458L163.01 171.768L162.84 177.878C163.929 177.713 164.91 177.656 165.784 177.707C172.198 176.19 190.836 171.864 201.402 170.249L201.345 169.717L218.108 167.941C218.58 167.894 218.994 167.724 219.295 167.482C219.389 167.48 219.482 167.478 219.576 167.476C220.598 175.434 219.776 185.388 210.248 188.173H167.304C167.307 188.186 167.311 188.199 167.315 188.211H147.613C147.504 185.618 148.995 183.4 152.085 181.559Z" fill="#FFBB88"/>
<path id="Shadow Arm" opacity="0.2" d="M152.08 181.595L153.557 170.817L163.01 171.728L162.827 177.861C159.942 178.338 157.862 178.798 156.584 179.242C155.306 179.686 153.805 180.47 152.08 181.595Z" fill="#8C2A00"/>
<path id="Shadow" d="M201.981 169.772C202.026 169.988 201.888 170.199 201.672 170.244C201.457 170.289 201.246 170.151 201.2 169.936C200.781 167.937 199.136 161.278 197.589 155.158C197.535 154.945 197.665 154.728 197.878 154.674C198.092 154.62 198.309 154.749 198.363 154.963C199.914 161.1 201.559 167.757 201.981 169.772ZM163.324 171.456C163.289 171.674 163.084 171.821 162.867 171.786C162.649 171.751 162.502 171.547 162.537 171.329C162.862 169.313 163.713 162.507 164.462 156.239C164.488 156.021 164.687 155.865 164.906 155.891C165.124 155.917 165.28 156.115 165.254 156.334C164.502 162.62 163.652 169.423 163.324 171.456Z" fill="#000B93"/>
<path id="Shadow_2" d="M181.301 130.123L185.35 129.207L180.935 132.462L181.301 130.123Z" fill="#482D1F"/>
<path id="Eyes" d="M175.644 118.384C175.532 118.822 175.312 119.538 175 119.748C174.48 120.053 174.16 118.637 174.656 117.894C174.853 117.58 175.045 117.563 175.249 117.63C175.552 117.743 175.705 118.071 175.644 118.384ZM180.331 119.213C180.271 119.662 180.129 120.393 179.807 120.655C179.33 121.023 178.842 119.628 179.266 118.844C179.436 118.525 179.634 118.482 179.843 118.523C180.156 118.584 180.366 118.895 180.331 119.213Z" fill="#482D1F"/>
<path id="Mouth" d="M177.146 124.173C177.339 124.156 177.808 124.112 177.942 123.84C177.952 123.788 177.994 123.715 177.978 123.658C177.909 123.455 177.575 123.498 177.1 123.433C176.255 123.323 175.592 123.113 175.592 123.113C175.592 123.113 175.673 123.67 175.773 123.852C175.984 124.299 176.87 124.201 177.146 124.173Z" fill="#482D1F"/>
<path id="Nose" d="M176.391 118.583L176.401 118.547L176.395 118.565L176.391 118.583ZM175.466 121.263C175.36 121.548 175.532 121.882 175.82 121.989C175.884 122.008 175.884 122.008 175.925 122.019C176.359 122.139 176.632 122.205 177.105 122.297C177.249 122.325 177.388 122.23 177.416 122.086C177.444 121.942 177.35 121.803 177.206 121.775C176.748 121.686 176.488 121.623 176.067 121.507L175.983 121.484C175.983 121.482 175.965 121.448 175.967 121.443L176.903 118.72L176.913 118.685L177.212 117.145C177.24 117.001 177.146 116.861 177.002 116.833C176.858 116.805 176.718 116.899 176.69 117.044L176.395 118.565L175.466 121.263Z" fill="#482D1F"/>
<path id="Ear" d="M193.036 119.639C193.007 120.427 192.708 121.233 192.23 121.835C191.645 122.596 190.961 122.941 190.125 123.146C189.983 123.181 189.895 123.325 189.93 123.467C189.965 123.61 190.109 123.697 190.252 123.662C190.619 123.572 190.916 123.474 191.273 123.294C191.798 123.029 192.267 122.659 192.649 122.162C193.194 121.475 193.534 120.56 193.568 119.659C193.573 119.512 193.459 119.389 193.312 119.383C193.165 119.378 193.042 119.492 193.036 119.639Z" fill="#482D1F"/>
<path id="Hair" d="M193.051 119.548C193.049 119.066 192.952 118.575 192.736 118.104C192.129 116.767 190.69 115.81 189.356 115.984C188.605 116.082 188.029 116.539 187.967 116.581C187.718 116.794 187.512 117.019 187.346 117.233L173.509 113.496C173.814 110.494 175.336 108.503 178.074 107.525C178.813 107.261 180.807 106.872 182.543 107.097C185.223 107.445 187.799 108.181 188.523 108.377C189.113 108.546 190.12 108.647 190.392 108.727C193.348 109.009 195.587 110.32 196.355 111.004C196.642 111.25 197.313 111.868 197.782 112.907C199.253 116.063 198.114 119.335 197.731 120.073C197.463 120.59 197.091 120.897 197.091 120.897C195.985 120.624 194.639 120.175 193.051 119.548ZM173.969 116.135C173.718 116.033 173.706 115.678 173.924 115.531C174.199 115.368 174.657 115.24 175.179 115.342C176.249 115.55 177.261 116.477 175.999 116.557C175.254 116.629 174.439 116.362 173.969 116.135ZM179.31 117.363C179.059 117.26 179.047 116.906 179.291 116.764C179.566 116.6 180.025 116.473 180.573 116.579C181.643 116.787 182.649 117.741 181.393 117.795C180.59 117.883 179.811 117.569 179.31 117.363Z" fill="#000B93"/>
</g>
</g>
</g>
<g id="Interior / Table / Table 4">
<path id="Combined Shape_7" d="M59.8552 187.944V282.98C59.8552 284.007 59.0219 284.84 57.994 284.84C56.9661 284.84 56.1328 284.007 56.1328 282.98L56.1328 186.216C56.1328 185.321 56.7655 184.573 57.6082 184.395C57.8467 184.284 58.1125 184.222 58.3928 184.222H216.593C217.621 184.222 218.454 185.056 218.454 186.083C218.454 187.111 217.621 187.944 216.593 187.944H59.8552Z" fill="#C1D6E9"/>
</g>
<g id="Documents">
<path id="Rectangle" d="M123.534 176.779H80.727C78.5977 176.779 76.8717 178.505 76.8717 180.634C76.8717 182.763 78.5977 184.488 80.727 184.488H123.534C125.663 184.488 127.389 182.763 127.389 180.634C127.389 178.505 125.663 176.779 123.534 176.779Z" fill="#000B93"/>
<path id="Rectangle Copy 2" d="M121.141 161.361H78.334C76.2048 161.361 74.4787 163.087 74.4787 165.215C74.4787 167.344 76.2048 169.07 78.334 169.07H121.141C123.27 169.07 124.996 167.344 124.996 165.215C124.996 163.087 123.27 161.361 121.141 161.361Z" fill="#000B93"/>
<path id="Rectangle Copy" d="M129.118 169.07H86.3105C84.1813 169.07 82.4552 170.796 82.4552 172.925C82.4552 175.053 84.1813 176.779 86.3105 176.779H129.118C131.247 176.779 132.973 175.053 132.973 172.925C132.973 170.796 131.247 169.07 129.118 169.07Z" fill="#0013FE"/>
<path id="Rectangle Copy 3" d="M125.129 153.652H82.3223C80.1931 153.652 78.467 155.377 78.467 157.506C78.467 159.635 80.1931 161.361 82.3223 161.361H125.129C127.259 161.361 128.985 159.635 128.985 157.506C128.985 155.377 127.259 153.652 125.129 153.652Z" fill="#0013FE"/>
</g>
</g>
<g id="UI / Users / User 4 / 4" fill="#000">
<g id="User">
<path id="Rectangle_2" d="M192.939 0H89.5113C85.8402 0 82.8643 2.97544 82.8643 6.64583V96.7633C82.8643 100.434 85.8402 103.409 89.5113 103.409H191.61C195.281 103.409 198.257 100.434 198.257 96.7633V5.31667C198.257 2.38035 195.876 0 192.939 0Z" fill="#E1E5F0"/>
<g id="Userpic_6">
<path id="Oval_6" d="M140.428 63.2683C127.285 63.2683 116.631 52.6163 116.631 39.4763C116.631 26.3363 127.285 15.6842 140.428 15.6842C153.57 15.6842 164.224 26.3363 164.224 39.4763C164.224 52.6163 153.57 63.2683 140.428 63.2683Z" fill="#D8DEED"/>
<path id="Combined Shape_8" fill-rule="evenodd" clip-rule="evenodd" d="M142.357 50.2212C143.563 50.6661 143.499 50.6207 143.634 50.6658C145.405 51.1148 146.924 51.0587 147.205 51.0026C148.217 50.9184 149.285 50.0764 150.241 48.6449C151.534 46.7364 152.687 43.7613 153.306 40.1967C153.418 39.6915 153.446 39.1863 153.474 38.6811L153.587 33.6571C153.615 32.5344 153.362 31.4117 152.8 30.4013C152.659 30.1207 152.519 29.8729 152.364 29.6512C152.419 29.6252 152.472 29.6002 152.525 29.5764C152.385 29.3797 152.244 29.211 152.131 29.0143C149.963 26.0072 145.43 25.6137 143.346 25.8386C143.093 25.8667 142.192 25.9791 140.897 26.0634C140.193 26.1196 139.629 26.1196 139.292 26.1477C135.096 26.3163 133.435 25.8105 131.323 26.9346C130.929 27.1313 130.028 27.6372 129.24 28.6209C127.015 31.4032 127.55 35.0005 127.691 36.0684C128.198 39.2723 130.056 41.2396 130.619 42.0546C131.272 43.0161 132.361 44.1855 133.16 44.9984L132.85 54.0711C132.85 54.2722 132.937 54.4732 133.11 54.5594C133.859 55.0189 134.926 55.5358 136.252 55.823C138.645 56.3687 140.692 55.9666 141.845 55.622C142.076 55.5646 142.249 55.3348 142.249 55.105L142.357 50.2212Z" fill="#E9F0F8"/>
<path id="Combined Shape_9" d="M132.056 37.2711C132.087 36.5493 132.305 35.824 132.765 35.1857C133.69 33.8929 135.423 33.1747 136.81 33.6344C137.59 33.8929 138.11 34.4962 138.168 34.5537C138.948 35.5305 139.122 36.5647 139.122 36.5647L139.153 36.871C141.134 34.7878 143.598 32.2127 145.451 30.2326C146.579 30.5464 148.439 30.8602 150.553 30.4038C151.314 30.2326 151.962 29.8332 152.525 29.5765C152.385 29.3768 152.244 29.2056 152.159 29.063C149.961 26.0105 145.339 25.6111 143.225 25.8394C142.943 25.8679 142.041 25.982 140.717 26.0676C139.984 26.1246 139.42 26.1246 139.082 26.1532C134.798 26.3243 133.107 25.8108 130.965 26.9519C130.571 27.1516 129.641 27.6651 128.851 28.6636C126.399 31.6875 126.991 35.3676 127.273 36.2234C127.47 36.8225 127.837 37.2219 127.837 37.2219C129.325 37.1554 130.703 37.2008 132.056 37.2711ZM152.766 37.0669C153.063 37.0049 153.152 36.6014 152.944 36.3841C152.677 36.1358 152.201 35.8875 151.607 35.8875C150.39 35.8875 149.083 36.7255 150.449 37.098C151.251 37.3152 152.201 37.1911 152.766 37.0669ZM146.928 37.3209C147.22 37.2595 147.308 36.86 147.074 36.6449C146.811 36.3991 146.344 36.1533 145.73 36.1533C144.532 36.1533 143.246 37.0137 144.59 37.3516C145.438 37.5975 146.373 37.4438 146.928 37.3209Z" fill="#C1D6E9"/>
<path id="Path" d="M150.664 39.0073C150.664 38.6613 150.858 38.3441 151.148 38.2864C151.342 38.2576 151.512 38.3152 151.633 38.6901C151.947 39.5841 151.415 41.026 151.003 40.5934C150.761 40.305 150.688 39.4976 150.664 39.0073Z" fill="#E1E5F0"/>
<path id="Path_2" d="M145.623 38.9177C145.646 38.5698 145.885 38.28 146.172 38.28C146.363 38.28 146.53 38.367 146.626 38.7438C146.864 39.6713 146.196 41.0626 145.838 40.5698C145.599 40.222 145.599 39.4104 145.623 38.9177Z" fill="#E1E5F0"/>
<path id="Path_3" d="M147.731 44.7425C147.53 44.6819 147.041 44.5304 146.955 44.1971C146.955 44.1365 146.926 44.0456 146.955 43.985C147.07 43.7729 147.415 43.8941 147.933 43.9244C148.853 43.985 149.601 43.8941 149.601 43.8941C149.601 43.8941 149.399 44.5001 149.256 44.6819C148.968 45.1365 148.048 44.8335 147.731 44.7425Z" fill="#E1E5F0"/>
<path id="Path_4" d="M150.126 42.0785C150.177 42.3846 149.942 42.6873 149.633 42.7396C149.565 42.746 149.565 42.746 149.521 42.7495C149.058 42.7857 148.768 42.7992 148.271 42.7992C148.124 42.7992 148.005 42.6802 148.005 42.5333C148.005 42.3865 148.124 42.2675 148.271 42.2675C148.753 42.2675 149.029 42.2547 149.479 42.2195L149.568 42.2125C149.573 42.2105 149.603 42.1721 149.601 42.1578L149.188 39.1652L149.186 39.1289V37.4825C149.186 37.3357 149.305 37.2167 149.451 37.2167C149.598 37.2167 149.717 37.3357 149.717 37.4825V39.1107L150.126 42.0785Z" fill="#E1E5F0"/>
<path id="Path_5" d="M132.101 36.7283C131.965 37.551 132.121 38.4467 132.516 39.1678C132.997 40.0791 133.676 40.5775 134.552 40.9606C134.687 41.0194 134.748 41.1762 134.689 41.3107C134.63 41.4452 134.473 41.5066 134.339 41.4477C133.958 41.2812 133.656 41.1207 133.307 40.8641C132.791 40.4856 132.359 40.0104 132.047 39.4195C131.598 38.5984 131.421 37.5825 131.576 36.6418C131.6 36.4969 131.737 36.3988 131.881 36.4227C132.026 36.4466 132.124 36.5834 132.101 36.7283Z" fill="#E1E5F0"/>
</g>
<g id="Text_7">
<path id="Rectangle_3" d="M135.642 74.4333H173.929C174.883 74.4333 175.657 75.2069 175.657 76.1612V76.9588C175.657 77.9131 174.883 78.6867 173.929 78.6867H135.642C134.687 78.6867 133.914 77.9131 133.914 76.9588V76.1612C133.914 75.2069 134.687 74.4333 135.642 74.4333Z" fill="#D8DEED"/>
<path id="Rectangle Copy 6" d="M106.661 85.8642H173.929C174.883 85.8642 175.657 86.6378 175.657 87.5921V88.1237C175.657 89.078 174.883 89.8516 173.929 89.8516H106.661C105.706 89.8516 104.932 89.078 104.932 88.1237V87.5921C104.932 86.6378 105.706 85.8642 106.661 85.8642Z" fill="#F2F6FB"/>
<path id="Rectangle Copy 5" d="M106.661 74.4333H128.463C129.418 74.4333 130.191 75.2069 130.191 76.1612V76.9588C130.191 77.9131 129.418 78.6867 128.463 78.6867H106.661C105.706 78.6867 104.932 77.9131 104.932 76.9588V76.1612C104.932 75.2069 105.706 74.4333 106.661 74.4333Z" fill="#D8DEED"/>
</g>
</g>
</g>
<g id="UI / Icons / Cursor" fill="#000">
<path id="Path_6" d="M133.328 123.162L115.868 111.916C115.634 112.078 115.634 112.078 115.425 112.264L121.952 131.904C121.952 131.904 124.516 131.556 126.497 130.443L129.458 134.246C130.629 133.595 131.456 133.084 131.94 132.712C132.423 132.34 133.033 131.746 133.77 130.93L130.81 127.104C131.649 125.782 132.488 124.461 133.328 123.162Z" fill="#E9F0F8"/>
</g>
<g id="UI / Users / User 3 / 1" fill="#000">
<g id="User_2">
<g id="Browser_2">
<g id="Background_2">
<path id="Rectangle_4" d="M92.2929 52.635H5.34932C2.41247 52.635 0.0316772 55.0154 0.0316772 57.9517V134.778C0.0316772 137.714 2.41247 140.094 5.34932 140.094H92.2929C95.2297 140.094 97.6105 137.714 97.6105 134.778V57.9517C97.6105 55.0154 95.2297 52.635 92.2929 52.635Z" fill="#E9F0F8"/>
</g>
<path id="Top bar" d="M0.0316772 57.4689C0.0316772 54.7992 2.195 52.635 4.86646 52.635H92.7757C95.4459 52.635 97.6105 54.7986 97.6105 57.4689V62.3027H0.0316772V57.4689Z" fill="#C1D6E9"/>
<path id="Burron" d="M6.10225 60.0544C7.34399 60.0544 8.35062 59.0478 8.35062 57.8061C8.35062 56.5644 7.34399 55.5578 6.10225 55.5578C4.86051 55.5578 3.85388 56.5644 3.85388 57.8061C3.85388 59.0478 4.86051 60.0544 6.10225 60.0544Z" fill="#FF5645"/>
<path id="Burron_2" d="M13.1846 60.0544C14.4884 60.0544 15.5453 59.0478 15.5453 57.8061C15.5453 56.5644 14.4884 55.5578 13.1846 55.5578C11.8807 55.5578 10.8238 56.5644 10.8238 57.8061C10.8238 59.0478 11.8807 60.0544 13.1846 60.0544Z" fill="#FFCB3D"/>
<path id="Burron_3" d="M20.2669 60.0544C21.5086 60.0544 22.5153 59.0478 22.5153 57.8061C22.5153 56.5644 21.5086 55.5578 20.2669 55.5578C19.0252 55.5578 18.0185 56.5644 18.0185 57.8061C18.0185 59.0478 19.0252 60.0544 20.2669 60.0544Z" fill="#3ABF7C"/>
</g>
<g id="Text_8">
<path id="Object" d="M20.8293 117.386H52.7554C53.6869 117.386 54.442 118.141 54.442 119.073C54.442 120.004 53.6869 120.759 52.7554 120.759H20.8293C19.8978 120.759 19.1427 120.004 19.1427 119.073C19.1427 118.141 19.8978 117.386 20.8293 117.386ZM59.2762 117.386H77.0377C77.9692 117.386 78.7242 118.141 78.7242 119.073C78.7242 120.004 77.9692 120.759 77.0377 120.759H59.2762C58.3448 120.759 57.5897 120.004 57.5897 119.073C57.5897 118.141 58.3448 117.386 59.2762 117.386ZM49.0459 110.192C37.7461 110.192 28.5858 101.032 28.5858 89.7321C28.5858 78.4326 37.7461 69.2725 49.0459 69.2725C60.3457 69.2725 69.506 78.4326 69.506 89.7321C69.506 101.032 60.3457 110.192 49.0459 110.192Z" fill="#E1E5F0"/>
<path id="Rectangle Copy 6_2" d="M76.996 126.829H20.871C19.9165 126.829 19.1427 127.603 19.1427 128.557V128.699C19.1427 129.653 19.9165 130.426 20.871 130.426H76.996C77.9505 130.426 78.7242 129.653 78.7242 128.699V128.557C78.7242 127.603 77.9505 126.829 76.996 126.829Z" fill="#E1E5F0"/>
</g>
<g id="Userpic_7">
<path id="Path_7" d="M55.8278 95.6561C56.4987 96.0293 57.7908 96.799 59.2569 97.872C61.0459 99.2249 59.6048 101.907 57.3933 101.348L54.2873 100.554C53.3927 100.321 52.7715 99.5981 52.7218 98.7351L52.6473 97.4522C52.5727 96.3092 53.5418 95.3528 54.7594 95.3528C55.1321 95.3762 55.5048 95.4695 55.8278 95.6561Z" fill="#D8DEED"/>
<path id="Combined Shape_10" d="M51.9409 93.0108L53.993 92.6549L54.2116 93.9954L54.1873 95.671L54.8916 101.871C54.8916 101.871 48.7711 104.576 47.7996 103.355L47.2181 98.388C47.1254 98.4186 47.0304 98.4496 46.9331 98.4811C44.8386 99.1666 44.9604 99.1177 44.8143 99.1666C43.2556 99.5094 41.9405 99.387 41.6969 99.338C39.6755 99.0687 37.508 95.1761 36.7774 89.7168C36.7043 89.2761 36.7043 88.8354 36.68 88.3948L36.753 84.0126C36.753 83.0333 37.0209 82.0785 37.508 81.2462C37.5567 81.1482 37.6054 81.0748 37.6541 81.0014C37.8246 80.7321 37.9951 80.5117 38.1656 80.3159C38.8231 79.5325 39.6025 78.9694 40.4062 78.5777C42.3058 77.7943 44.449 77.7208 45.6423 77.8922C45.8128 77.9167 46.3486 77.9901 47.1036 78.0881C47.8099 78.2594 48.4918 78.3574 49.1981 78.3818C49.5877 78.4063 49.88 78.7491 49.88 79.1408L49.6364 85.408C49.6121 85.9956 50.2696 86.3628 50.7567 86.0201C50.7567 86.0201 50.7811 86.0201 50.7811 85.9956C50.8541 85.9466 51.3899 85.6284 52.0475 85.6039C53.2165 85.5794 54.3855 86.5831 54.7508 87.8072C55.1405 89.0803 54.6778 90.3778 53.8984 91.1857C53.3383 91.7487 52.6807 91.9936 52.2423 92.116C52.0231 92.1404 51.804 92.3363 51.7553 92.5566C51.7553 92.5566 51.7553 92.5811 51.7309 92.6056L51.9409 93.0108Z" fill="#E9F0F8"/>
<path id="Combined Shape_11" d="M51.7457 92.2421C50.8013 90.4814 49.6921 88.4453 48.9309 87.3194C47.2191 85.4193 45.5073 83.5435 43.771 81.6434C42.7928 81.887 41.1788 82.1062 39.3447 81.6677C38.7578 81.5216 38.0943 81.2206 37.6541 81.0014C37.8253 80.7334 38.0928 80.3825 38.264 80.1876C38.9243 79.4081 39.6978 78.9259 40.5048 78.5361C42.4122 77.7566 44.6269 77.7213 45.8252 77.8919C45.9964 77.9162 46.5344 77.9893 47.2925 78.0867C47.5126 78.1111 47.7327 78.1355 48.0017 78.1598C48.6375 78.2085 49.1266 78.2573 49.42 78.2816C53.1371 78.5252 54.5799 78.1111 56.4385 79.1342C56.7808 79.3291 57.5634 79.792 58.2237 80.6446C59.551 82.3567 59.6823 84.3872 59.59 85.776C59.9917 87.5323 60.7196 91.8893 58.7764 94.3461C56.3025 97.4738 56.5994 98.5005 56.5994 98.5005L55.4152 97.689L55.791 98.2756L54.6179 97.9367C53.5846 97.3439 52.9193 96.526 52.4924 95.6861L52.4184 95.6354L52.4462 95.5931C51.7788 94.2217 51.7324 92.8114 51.7457 92.2421Z" fill="#C1D6E9"/>
<path id="Path_8" d="M48.1466 89.9203L49.3524 87.1815C49.3524 87.1815 49.7383 86.4059 50.5823 85.8485C50.6547 85.8 51.1853 85.485 51.8364 85.4607C52.994 85.4365 54.1516 86.4302 54.5133 87.642C54.9233 88.9023 54.4651 90.1869 53.6934 90.9624C52.9216 91.738 51.9329 91.9077 51.6193 91.9804L50.3653 91.8592" fill="#F2F6FB"/>
<path id="Combined Shape_12" d="M39.4216 91.3632C38.8662 92.4011 37.797 93.1045 36.5675 93.1045C34.7651 93.1045 33.3074 91.5928 33.3074 89.7321C33.3074 87.8713 34.7651 86.3596 36.5675 86.3596C38.1979 86.3596 39.5463 87.5966 39.7888 89.2099L40.7272 89.1317C40.7484 87.3471 42.2519 85.9099 44.0995 85.9099C45.488 85.9099 46.6821 86.7216 47.1989 87.8824L48.7665 87.4905C48.887 87.4604 49.0091 87.5336 49.0392 87.6541C49.0693 87.7745 48.9961 87.8966 48.8756 87.9267L47.3528 88.3074C47.4305 88.5821 47.4721 88.8713 47.4721 89.17C47.4721 90.9723 45.9603 92.43 44.0995 92.43C42.3824 92.43 40.9625 91.1887 40.7535 89.5808L40.0193 89.6419L39.8276 91.8855C39.8276 91.9244 39.862 91.9698 39.8684 91.9706C40.02 91.9829 40.1133 91.9829 40.4968 91.9751C40.6784 91.9715 40.8036 91.9698 40.9518 91.9698C41.076 91.9698 41.1767 92.0705 41.1767 92.1946C41.1767 92.3188 41.076 92.4195 40.9518 92.4195C40.8072 92.4195 40.6847 92.4211 40.5059 92.4247C40.1111 92.4327 40.0082 92.4328 39.8393 92.4193C39.5765 92.4122 39.378 92.1459 39.3788 91.8664L39.4216 91.3632ZM38.6298 89.3274C38.7003 89.7499 38.7709 90.4306 38.5828 90.7357C38.2772 91.2286 37.4543 90.102 37.5954 89.304C37.6659 88.9754 37.8305 88.8345 38.0186 88.8345C38.3242 88.8111 38.5828 89.0223 38.6298 89.3274ZM41.5094 93.7777C41.2737 93.8761 40.5881 94.1712 40.3524 93.8761C40.2453 93.7531 40.0525 93.335 40.0525 93.335C40.0525 93.335 40.631 93.335 41.3166 93.2121C41.7022 93.1383 41.9808 93.0399 42.0665 93.1629C42.0879 93.1875 42.0665 93.2613 42.0665 93.3104C42.0236 93.5564 41.6594 93.7285 41.5094 93.7777ZM46.8044 88.1032C46.3677 87.0808 45.3221 86.3596 44.0995 86.3596C42.4835 86.3596 41.1767 87.6197 41.1767 89.17C41.1767 90.7203 42.4835 91.9804 44.0995 91.9804C45.7156 91.9804 47.0224 90.7203 47.0224 89.17C47.0224 88.8821 46.9773 88.6042 46.8936 88.3425C46.8507 88.3126 46.818 88.2676 46.8043 88.2128C46.7949 88.1755 46.7955 88.138 46.8044 88.1032ZM36.5675 92.6549C38.1178 92.6549 39.378 91.3481 39.378 89.7321C39.378 88.1161 38.1178 86.8093 36.5675 86.8093C35.0172 86.8093 33.7571 88.1161 33.7571 89.7321C33.7571 91.3481 35.0172 92.6549 36.5675 92.6549Z" fill="#D8DEED"/>
</g>
</g>
<path id="Path_9" d="M43.3514 88.8778C43.3043 88.5727 43.0457 88.3614 42.7401 88.3849C42.5521 88.3849 42.3875 88.5257 42.317 88.8543C42.1759 89.6523 42.9987 90.7789 43.3043 90.286C43.4924 89.9809 43.4219 89.3003 43.3514 88.8778Z" fill="#D8DEED"/>
</g>
</g>
</svg>
