<?xml version="1.0" encoding="UTF-8"?>
<svg xmlns="http://www.w3.org/2000/svg" xmlns:xlink="http://www.w3.org/1999/xlink" width="375pt" height="374.999991pt" viewBox="0 0 375 374.999991" version="1.2">
<defs>
<clipPath id="clip1">
  <path d="M 85.753906 203 L 289.003906 203 L 289.003906 291.792969 L 85.753906 291.792969 Z M 85.753906 203 "/>
</clipPath>
<clipPath id="clip2">
  <path d="M 199 265 L 289.003906 265 L 289.003906 291.792969 L 199 291.792969 Z M 199 265 "/>
</clipPath>
<clipPath id="clip3">
  <path d="M 85.753906 265 L 180 265 L 180 291.792969 L 85.753906 291.792969 Z M 85.753906 265 "/>
</clipPath>
<clipPath id="clip4">
  <path d="M 206 173 L 252 173 L 252 291.792969 L 206 291.792969 Z M 206 173 "/>
</clipPath>
<clipPath id="clip5">
  <path d="M 124 173 L 170 173 L 170 291.792969 L 124 291.792969 Z M 124 173 "/>
</clipPath>
</defs>
<g id="surface1">
<path style=" stroke:none;fill-rule:nonzero;fill:rgb(3.529358%,15.689087%,21.958923%);fill-opacity:1;" d="M 243.5 165.886719 C 247.964844 144.3125 247.003906 120.996094 232.101562 104.078125 C 227.277344 98.597656 221.277344 94.445312 214.949219 91.28125 C 201.511719 84.5625 187 83.320312 172.625 86.742188 C 158.78125 90.042969 148.882812 98.375 141.726562 111.933594 C 127.191406 139.472656 131.554688 180.308594 150.292969 204.152344 C 157.308594 213.089844 167.199219 218.949219 177.578125 222.160156 C 183.535156 224 189.832031 225.03125 195.917969 223.796875 C 200.007812 222.972656 203.867188 221.15625 207.527344 219 C 225.292969 208.523438 238.269531 189.292969 243.054688 167.960938 C 243.207031 167.273438 243.351562 166.585938 243.5 165.886719 Z M 243.5 165.886719 "/>
<g clip-path="url(#clip1)" clip-rule="nonzero">
<path style=" stroke:none;fill-rule:nonzero;fill:rgb(92.549133%,75.289917%,56.469727%);fill-opacity:1;" d="M 288.925781 291.730469 C 288.964844 291.6875 289.011719 291.648438 289.054688 291.601562 C 283.824219 274.46875 270.421875 260.589844 252.675781 255.140625 L 218.640625 244.035156 C 212.359375 241.984375 208.109375 236.121094 208.109375 229.503906 L 208.109375 203.34375 L 166.886719 203.34375 L 166.886719 229.820312 C 166.886719 236.484375 162.570312 242.386719 156.222656 244.390625 L 122.132812 255.164062 C 104.476562 260.554688 91.097656 274.316406 85.796875 291.300781 C 85.933594 291.4375 86.078125 291.574219 86.214844 291.714844 L 288.925781 291.714844 Z M 288.925781 291.730469 "/>
</g>
<g clip-path="url(#clip2)" clip-rule="nonzero">
<path style=" stroke:none;fill-rule:nonzero;fill:rgb(32.159424%,44.309998%,100%);fill-opacity:1;" d="M 288.925781 291.730469 C 288.964844 291.6875 289.011719 291.648438 289.054688 291.601562 C 285.945312 281.417969 279.929688 272.402344 271.851562 265.609375 L 199.199219 291.730469 Z M 288.925781 291.730469 "/>
</g>
<g clip-path="url(#clip3)" clip-rule="nonzero">
<path style=" stroke:none;fill-rule:nonzero;fill:rgb(32.159424%,44.309998%,100%);fill-opacity:1;" d="M 179.496094 291.730469 L 102.949219 265.609375 C 94.925781 272.335938 88.9375 281.246094 85.796875 291.316406 C 85.933594 291.453125 86.078125 291.589844 86.214844 291.730469 Z M 179.496094 291.730469 "/>
</g>
<path style=" stroke:none;fill-rule:nonzero;fill:rgb(98.429871%,79.60968%,59.609985%);fill-opacity:1;" d="M 231.964844 144.792969 C 231.851562 113.164062 212.527344 90.457031 187.542969 90.457031 C 187.527344 90.457031 187.507812 90.457031 187.492188 90.457031 C 187.476562 90.457031 187.460938 90.457031 187.445312 90.457031 C 162.457031 90.457031 143.136719 113.171875 143.023438 144.792969 C 142.972656 159.207031 143.363281 162.796875 144.828125 173.265625 C 149.375 205.792969 179.375 220.8125 187.445312 220.8125 C 197.335938 220.8125 225.367188 205.792969 229.914062 173.265625 C 231.382812 162.796875 232.011719 159.207031 231.964844 144.792969 Z M 231.964844 144.792969 "/>
<path style=" stroke:none;fill-rule:nonzero;fill:rgb(98.429871%,79.60968%,59.609985%);fill-opacity:1;" d="M 143.015625 149.589844 C 141.695312 148.15625 139.679688 147.457031 138.539062 149.445312 C 136.902344 152.289062 137.074219 156.101562 137.308594 159.253906 C 137.503906 161.800781 137.816406 164.355469 138.480469 166.828125 C 139.054688 168.96875 139.839844 171.910156 141.742188 173.242188 C 142.179688 173.546875 142.773438 173.847656 143.320312 173.960938 C 143.621094 174.027344 145.441406 174.058594 144.828125 173.265625 "/>
<path style=" stroke:none;fill-rule:nonzero;fill:rgb(98.429871%,79.60968%,59.609985%);fill-opacity:1;" d="M 231.730469 149.589844 C 233.046875 148.15625 235.0625 147.457031 236.207031 149.445312 C 237.839844 152.289062 237.671875 156.101562 237.433594 159.253906 C 237.242188 161.800781 236.925781 164.355469 236.261719 166.828125 C 235.6875 168.96875 234.902344 171.910156 233 173.242188 C 232.5625 173.546875 231.972656 173.847656 231.421875 173.960938 C 231.121094 174.027344 229.300781 174.058594 229.914062 173.265625 "/>
<path style=" stroke:none;fill-rule:nonzero;fill:rgb(3.529358%,15.689087%,21.958923%);fill-opacity:1;" d="M 208.457031 167.167969 C 210.730469 167.816406 213.085938 168.207031 215.523438 168.261719 C 215.582031 166.261719 215.644531 164.25 215.703125 162.246094 C 223.757812 165.667969 227.941406 176.757812 229.503906 184.695312 C 229.367188 183.984375 232.359375 180.140625 232.78125 179.207031 C 233.753906 177.050781 234.199219 174.78125 234.949219 172.550781 C 236.535156 167.839844 237.75 163.277344 238.480469 158.273438 C 240.050781 147.492188 240.058594 136.410156 237.589844 125.761719 C 234.148438 110.910156 219.523438 95.492188 205.007812 89.679688 C 199.148438 87.328125 193.183594 86.582031 186.933594 86.582031 C 184.644531 86.582031 182.34375 86.742188 180.078125 87.082031 C 162.132812 89.800781 149.539062 103.921875 143.757812 120.46875 C 140.789062 128.980469 139.445312 138.078125 139.65625 147.078125 C 139.808594 153.515625 140.140625 166.632812 145.046875 171.351562 C 148.695312 164.65625 143.320312 157.464844 149.101562 151.738281 C 152.589844 148.285156 156.863281 145.730469 160.636719 142.59375 C 163.875 139.902344 165.417969 135.566406 168.429688 133.042969 C 173.855469 137.488281 178.265625 144.101562 183.144531 149.234375 C 190.34375 156.789062 198.703125 164.386719 208.457031 167.167969 Z M 208.457031 167.167969 "/>
<g clip-path="url(#clip4)" clip-rule="nonzero">
<path style=" stroke:none;fill-rule:nonzero;fill:rgb(3.529358%,15.689087%,21.958923%);fill-opacity:1;" d="M 225.84375 273.722656 C 226.75 277.070312 226.289062 280.621094 225.707031 284.042969 C 225.269531 286.621094 224.757812 289.175781 224.203125 291.730469 L 244.753906 291.730469 C 248.644531 285.867188 251.316406 279.285156 251.464844 272.3125 C 251.558594 267.375 250.394531 262.484375 248.777344 257.824219 C 245.296875 247.789062 239.78125 238.609375 235.046875 229.101562 C 232.496094 223.976562 230.117188 218.585938 229.828125 212.867188 C 229.601562 208.46875 230.613281 204.105469 231.792969 199.855469 C 233.1875 194.839844 234.871094 189.925781 236.691406 185.042969 C 237.320312 183.351562 237.984375 181.914062 238.148438 180.117188 C 238.261719 178.835938 236.753906 174.441406 237.234375 173.597656 C 232.652344 181.792969 227.496094 189.664062 221.804688 197.132812 C 217.992188 202.144531 213.914062 207.007812 211 212.59375 C 203.117188 227.746094 205.367188 247.585938 216.429688 260.589844 C 219.960938 264.738281 224.417969 268.476562 225.84375 273.722656 Z M 225.84375 273.722656 "/>
</g>
<g clip-path="url(#clip5)" clip-rule="nonzero">
<path style=" stroke:none;fill-rule:nonzero;fill:rgb(3.529358%,15.689087%,21.958923%);fill-opacity:1;" d="M 151.804688 291.730469 C 151.277344 289.304688 150.792969 286.863281 150.378906 284.417969 C 149.804688 280.996094 149.335938 277.445312 150.242188 274.097656 C 151.667969 268.851562 156.121094 265.113281 159.648438 260.976562 C 170.722656 247.980469 172.964844 228.136719 165.078125 212.984375 C 162.175781 207.398438 158.09375 202.523438 154.273438 197.523438 C 148.582031 190.054688 143.425781 182.183594 138.847656 173.984375 C 139.316406 174.828125 137.808594 179.222656 137.929688 180.503906 C 138.09375 182.304688 138.757812 183.730469 139.386719 185.433594 C 141.210938 190.3125 142.894531 195.226562 144.285156 200.246094 C 145.46875 204.496094 146.480469 208.855469 146.253906 213.257812 C 145.953125 218.972656 143.582031 224.367188 141.03125 229.488281 C 136.296875 238.992188 130.785156 248.175781 127.304688 258.214844 C 125.683594 262.875 124.519531 267.765625 124.617188 272.703125 C 124.753906 279.527344 127.320312 285.980469 131.082031 291.746094 L 151.804688 291.746094 Z M 151.804688 291.730469 "/>
</g>
</g>
</svg>
